<?xml version="1.0" standalone="no"?>
<!DOCTYPE svg PUBLIC "-//W3C//DTD SVG 20010904//EN"
 "http://www.w3.org/TR/2001/REC-SVG-20010904/DTD/svg10.dtd">
<svg version="1.0" xmlns="http://www.w3.org/2000/svg"
 width="512.000000pt" height="512.000000pt" viewBox="0 0 512.000000 512.000000"
 preserveAspectRatio="xMidYMid meet">
<metadata>
Created by potrace 1.11, written by Peter Selinger 2001-2013
</metadata>
<g transform="translate(0.000000,512.000000) scale(0.100000,-0.100000)"
fill="#000000" stroke="none">
<path d="M2350 5110 c-445 -41 -842 -180 -1210 -425 -841 -559 -1275 -1571
-1101 -2565 141 -802 659 -1494 1386 -1850 263 -129 479 -198 760 -242 201
-31 549 -31 750 0 281 44 497 113 760 242 275 134 486 289 710 522 617 639
853 1542 630 2413 -154 602 -536 1135 -1065 1487 -309 206 -670 344 -1044 399
-151 22 -438 32 -576 19z m1710 -750 c0 -24 -83 -396 -89 -400 -4 -3 -238
-173 -519 -379 l-512 -375 82 -23 c166 -48 288 -126 394 -252 109 -130 177
-285 210 -475 22 -132 15 -409 -15 -578 -87 -495 -287 -774 -676 -948 -255
-114 -525 -170 -824 -170 -215 0 -360 26 -528 94 -261 107 -435 290 -497 521
-20 77 -35 243 -29 318 l5 57 208 0 208 0 7 -67 c29 -274 228 -482 515 -539
108 -21 317 -15 471 15 442 87 605 273 675 768 20 143 14 416 -11 533 -65 298
-260 405 -658 360 -51 -6 -217 -10 -370 -8 l-278 3 785 570 785 570 -922 5
c-812 4 -922 7 -920 20 3 22 74 363 78 378 4 9 255 12 1215 12 758 0 1210 -4
1210 -10z"/>
</g>
</svg>
