<?xml version="1.0" encoding="UTF-8"?>
<svg version="1.1" viewBox="0 0 2560 1440" xml:space="preserve" xmlns="http://www.w3.org/2000/svg" xmlns:cc="http://creativecommons.org/ns#" xmlns:dc="http://purl.org/dc/elements/1.1/" xmlns:rdf="http://www.w3.org/1999/02/22-rdf-syntax-ns#"><metadata><rdf:RDF><cc:Work rdf:about=""><dc:format>image/svg+xml</dc:format><dc:type rdf:resource="http://purl.org/dc/dcmitype/StillImage"/></cc:Work></rdf:RDF></metadata><defs><clipPath id="e"><path d="m0 0h1920v1080h-1920z"/></clipPath><clipPath id="b"><path d="m219.57 151.9h286.7v97.072h-286.7z"/></clipPath><clipPath id="a"><path d="m0 0h1920v1080h-1920z"/></clipPath><clipPath id="d"><path d="m1433.5 172.04h304.49v58.072h-304.49z"/></clipPath><clipPath id="c"><path d="m0 0h1920v1080h-1920z"/></clipPath></defs><g transform="matrix(1.3333 0 0 -1.3333 0 1440)"><g clip-path="url(#e)"><path d="m0 1080h1920v-1080h-1920z" fill="#fff"/><g transform="matrix(1 0 0 -1 376.29 834.19)"><path d="m0 554.69c38.657-194.98 115.82-374.35 231.49-538.1l1.4623-2.0406" fill="none" stroke="#000" stroke-width="5"/></g><path d="m616.08 811.66 3.5918 22.523-20.174-10.64z"/><path d="m243.91 279.49h238.02c6.5725 0 10.516 0 13.145-1.0976 3.7899-1.3794 6.7753-4.3648 8.1547-8.1547 1.0976-2.629 1.0976-6.5724 1.0976-13.145v-112.39c0-6.5724 0-10.516-1.0976-13.145-1.3794-3.7899-4.3648-6.7753-8.1547-8.1547-2.629-1.0976-6.5724-1.0976-13.145-1.0976h-238.02c-6.5725 0-10.516 0-13.145 1.0976-3.7899 1.3794-6.7753 4.3648-8.1547 8.1547-1.0976 2.629-1.0976 6.5724-1.0976 13.145v112.39c0 6.5725 0 10.516 1.0976 13.145 1.3794 3.7899 4.3648 6.7753 8.1547 8.1547 2.629 1.0976 6.5724 1.0976 13.145 1.0976z" fill="#ed220d"/><g transform="translate(858.99 1046.2)"><text transform="scale(1,-1)" fill="#000000" font-family="HelveticaNeue" font-size="27px"><tspan x="0 20.493 35.991001 51.488998 66.987 72.981003 87.480003 94.986 113.481 127.98 142.479 156.492 170.991 186.00301" y="0">Google Backend</tspan></text>
</g><g transform="matrix(1 0 0 -1 633.16 1033.6)"><path d="m0 0h651.74v409.05h-651.74z" fill="none" stroke="#000" stroke-width="5"/></g><path d="m225.1 158.36h275.63v85.072h-275.63z" fill="#ed220d"/></g><g clip-path="url(#b)"><g transform="translate(235.78 208.31)"><text transform="scale(1,-1)" fill="#ffffff" font-family="HelveticaNeue" font-size="32px" font-weight="500"><tspan x="0 21.344 32 42.655998 60.448002 78.239998 95.424004 113.216 124.48 133.37601 141.088 159.45599 179.008 197.98399 216.35201 234.72 254.272" y="0">Attacker inbound </tspan></text>
</g><g transform="translate(300.66 169.31)"><text transform="scale(1,-1)" fill="#ffffff" font-family="HelveticaNeue" font-size="32px" font-weight="500"><tspan x="0 18.976 36.768002 47.424 65.216003 90.112 107.904" y="0">gateway</tspan></text>
</g></g><g clip-path="url(#a)"><path d="m355.17 600.69h191.32c10.577 0 16.923 0 21.154-1.7663 6.0989-2.2198 10.903-7.0242 13.123-13.123 1.7662-4.2307 1.7662-10.577 1.7662-21.154v-85.102c0-10.577 0-16.923-1.7662-21.154-2.2199-6.099-7.0243-10.903-13.123-13.123-4.2308-1.7663-10.577-1.7663-21.154-1.7663h-191.32c-10.577 0-16.923 0-21.154 1.7663-6.099 2.2198-10.903 7.0242-13.123 13.123-1.7663 4.2307-1.7663 10.577-1.7663 21.154v85.102c0 10.577 0 16.923 1.7663 21.154 2.2198 6.099 7.0242 10.903 13.123 13.123 4.2307 1.7663 10.577 1.7663 21.154 1.7663z" fill="#929292"/><g transform="translate(327.42 556.54)"><text transform="scale(1,-1)" fill="#ffffff" font-family="HelveticaNeue" font-size="24px"><tspan x="0 11.112 24.888 31.559999" y="0">To: </tspan></text>
</g><g transform="translate(327.42 556.54)"><text transform="matrix(1,0,0,-1,38.232,0)" fill="#ffffff" font-family="HelveticaNeue" font-size="24px"><tspan x="0 7.5599999 20.448 25.775999 38.664001 50.664001 69.863998 82.751999 90.311996 97.872002 110.76 123.648 136.104 148.992 154.776 161.448 174.336 188.112" y="0">relay@attacker.com</tspan></text>
</g><g transform="translate(327.42 556.54)"><text transform="matrix(1 0 0 -1 246.82 0)" fill="#ffffff" font-family="HelveticaNeue" font-size="24px"><tspan x="0" y="0"/></text>
</g><g transform="translate(325.4 527.54)"><text transform="scale(1,-1)" fill="#ffffff" font-family="HelveticaNeue" font-size="24px"><tspan x="0 13.776 21.336 35.112 55.584 62.256001" y="0">From: </tspan></text>
</g><g transform="translate(325.4 527.54)"><text transform="matrix(1,0,0,-1,68.928,0)" fill="#ffffff" font-family="HelveticaNeue" font-size="24px"><tspan x="0 7.1040001 19.992001 32.448002 45.335999 64.536003 76.536003 81.863998 94.751999 102.312 107.64 128.112 134.784 147.672 161.448" y="0">fake@victim.com</tspan></text>
</g><g transform="translate(325.4 527.54)"><text transform="matrix(1 0 0 -1 250.85 0)" fill="#ffffff" font-family="HelveticaNeue" font-size="24px"><tspan x="0" y="0"/></text>
</g><g transform="translate(397.93 498.54)"><text transform="scale(1,-1)" fill="#ffffff" font-family="HelveticaNeue" font-size="24px"><tspan x="0 15.552 31.104 44.880001 51.551998" y="0">SPF: </tspan></text>
</g><g transform="translate(397.93 498.54)"><text transform="matrix(1,0,0,-1,58.224,0)" fill="#ee220c" font-family="HelveticaNeue" font-size="24px"><tspan x="0 12.456 28.007999 34.223999" y="0">FAIL</tspan></text>
</g><g transform="translate(397.93 498.54)"><text transform="matrix(1 0 0 -1 105.79 0)" fill="#ffffff" font-family="HelveticaNeue" font-size="24px"><tspan x="0" y="0"/></text>
</g><g transform="translate(376.81 469.54)"><text transform="scale(1,-1)" fill="#ffffff" font-family="HelveticaNeue" font-size="24px"><tspan x="0 16.896 37.799999 53.352001 69.792 87.120003 93.792" y="0">DMARC: </tspan></text>
</g><g transform="translate(376.81 469.54)"><text transform="matrix(1 0 0 -1 100.46 0)" fill="#ee220c" font-family="HelveticaNeue" font-size="24px"><tspan x="0 12.456 28.007999 34.223999" y="0">FAIL</tspan></text>
</g><g transform="matrix(1 0 0 -1 319.12 583.76)"><path d="m46.528 29.616h208.58" fill="none" stroke="#fff" stroke-miterlimit="10" stroke-width="1.2"/></g><g transform="matrix(1 0 0 -1 319.12 583.76)"><path d="m75.208 58.616h181.92" fill="none" stroke="#fff" stroke-miterlimit="10" stroke-width="1.2"/></g><g transform="matrix(0 1 1 0 959.02 636.95)"><path d="m0 0h384.23" fill="none" stroke="#000" stroke-width="5"/></g><g transform="translate(703.17 993.82)"><text transform="scale(1,-1)" fill="#000000" font-family="HelveticaNeue" font-size="24px"><tspan x="0 15.552 23.112 30.672001 43.560001 56.448002 68.903999 81.792 89.783997 96.456001 114.672 121.344 136.896 150.24001 155.56799 163.12801" y="0">Attacker G Suite</tspan></text>
</g><g transform="translate(1050.8 993.82)"><text transform="scale(1,-1)" fill="#000000" font-family="HelveticaNeue" font-size="24px"><tspan x="0 14.232 19.559999 32.448002 40.007999 45.335999 65.807999 72.480003 90.695999 97.367996 112.92 126.264 131.592 139.15199" y="0">Victim G Suite</tspan></text>
</g><g transform="translate(658.72 784.43)"><text transform="scale(1,-1)" fill="#000000" font-family="HelveticaNeue" font-size="24px"><tspan x="0 13.344 26.688 33.360001 40.032001 53.807999 67.152 80.040001 86.711998 92.040001 105.384 117.384 130.272 135.60001 140.92799 155.16 161.832 182.304 195.192 207.192 219.192 232.08 245.856 258.74399" y="0">#2: The invalid message </tspan></text>
</g><g transform="translate(667.18 755.43)"><text transform="scale(1,-1)" fill="#000000" font-family="HelveticaNeue" font-size="24px"><tspan x="0 5.3280001 17.327999 24 36.888 49.776001 62.664001 75.552002 89.783997 97.344002 110.232 124.464 131.136 145.368 158.256 171.144 184.032 197.37601 209.37601 222.26401 228.936 234.26401 241.82401" y="0">is accepted because it </tspan></text>
</g><g transform="translate(655.84 726.43)"><text transform="scale(1,-1)" fill="#000000" font-family="HelveticaNeue" font-size="24px"><tspan x="0 13.776 21.768 27.096001 40.872002 46.200001 59.543999 72.431999 79.991997 92.879997 107.112 113.784 120.888 128.448 142.224 162.696 169.368 182.256 188.92799 196.48801 204.48 217.82401 229.82401 237.384 250.272 264.504" y="0">originated from a trusted </tspan></text>
</g><g transform="translate(667.86 697.43)"><text transform="scale(1,-1)" fill="#000000" font-family="HelveticaNeue" font-size="24px"><tspan x="0 5.3280001 18.672001 32.903999 46.68 60.023998 73.367996 87.599998 94.272003 108.048 120.936 128.496 141.384 159.576 172.464 182.688 189.36 196.032 216.936 229.82401 235.15199 240.48" y="0">inbound gateway. Mail </tspan></text>
</g><g transform="translate(655.4 668.43)"><text transform="scale(1,-1)" fill="#000000" font-family="HelveticaNeue" font-size="24px"><tspan x="0 7.5599999 21.336 34.68 42.240002 47.568001 60.911999 74.688004 81.360001 89.351997 102.696 108.024 120.912 132.912 139.584 152.472 160.032 172.92 179.592 192.48 206.71201 220.944 226.272 231.60001 244.48801 258.72" y="0">routing rules are applied.</tspan></text>
</g><g transform="translate(1022.4 878.01)"><text transform="scale(1,-1)" fill="#000000" font-family="HelveticaNeue" font-size="24px"><tspan x="0 15.552 29.327999 49.799999 62.688 69.360001 81.360001 86.688004 99.575996 107.136 112.464 132.936 139.608 157.8 171.144 184.92 191.592 196.92 208.92" y="0">Some victim who is </tspan></text>
</g><g transform="translate(1014.6 849.01)"><text transform="scale(1,-1)" fill="#000000" font-family="HelveticaNeue" font-size="24px"><tspan x="0 12.888 26.664 31.992001 45.768002 58.655998 71.543999 79.103996 91.991997 106.224 112.896 126.672 140.01601 146.688 164.90401 178.67999 192.45599 206.23199 211.56 224.448" y="0">colocated on Google </tspan></text>
</g><g transform="translate(1008 820.01)"><text transform="scale(1,-1)" fill="#000000" font-family="HelveticaNeue" font-size="24px"><tspan x="0 5.3280001 18.672001 25.775999 33.768002 46.655998 58.655998 66.216003 74.208 87.552002 100.44 108 121.344 128.90401 141.79201 148.464 161.35201 174.696 188.92799 195.60001 200.92799 206.256 218.256 225.81599 237.81599" y="0">infrastructure and lists </tspan></text>
</g><g transform="translate(995.98 791.01)"><text transform="scale(1,-1)" fill="#000000" font-family="HelveticaNeue" font-size="24px"><tspan x="0 18.216 31.992001 45.768002 59.543999 64.872002 77.760002 84.431999 97.32 109.32 115.992 128.88 142.224 148.896 161.784 175.12801 182.688 196.032 209.808 217.8 223.12801 234.64799 247.536 261.76801" y="0">Google as an authorized </tspan></text>
</g><g transform="translate(1002.2 762.01)"><text transform="scale(1,-1)" fill="#000000" font-family="HelveticaNeue" font-size="24px"><tspan x="0 12 24.888 38.231998 52.464001 65.351997 73.344002 80.015999 87.120003 100.896 108.888 115.56 123.12 136.464 149.35201 154.67999 162.672 169.34399 183.576 197.35201 217.82401 230.71201 236.03999" y="0">sender for their domain</tspan></text>
</g><path d="m1457.8 279.49h255.8c6.572 0 10.516 0 13.145-1.0976 3.789-1.3794 6.775-4.3648 8.154-8.1547 1.098-2.629 1.098-6.5724 1.098-13.145v-112.39c0-6.5724 0-10.516-1.098-13.145-1.379-3.7899-4.365-6.7753-8.154-8.1547-2.629-1.0976-6.573-1.0976-13.145-1.0976h-255.8c-6.572 0-10.515 0-13.144 1.0976-3.79 1.3794-6.776 4.3648-8.155 8.1547-1.098 2.629-1.098 6.5724-1.098 13.145v112.39c0 6.5725 0 10.516 1.098 13.145 1.379 3.7899 4.365 6.7753 8.155 8.1547 2.629 1.0976 6.572 1.0976 13.144 1.0976z" fill="#00a2ff"/><path d="m1439 178.5h293.42v46.072h-293.42z" fill="#00a1ff"/></g><g clip-path="url(#d)"><g transform="translate(1446.3 189.45)"><text transform="scale(1,-1)" fill="#ffffff" font-family="HelveticaNeue" font-size="32px" font-weight="500"><tspan x="0 10.688 28.48 46.271999 53.984001 79.584 97.375999 114.56 132.35201 160.192 179.744 187.45599 205.248 214.144 231.936 250.912" y="0">real@example.com</tspan></text>
</g><g transform="matrix(1 0 0 -1 1439 224.57)"><path d="m7.3315 37.528h278.75" fill="none" stroke="#fff" stroke-miterlimit="10" stroke-width="1.6"/></g></g><g clip-path="url(#c)"><path d="m695.52 969.28h191.32c10.577 0 16.923 0 21.154-1.7663 6.099-2.2198 10.903-7.0242 13.123-13.123 1.7662-4.2307 1.7662-10.577 1.7662-21.154v-85.102c0-10.577 0-16.923-1.7662-21.154-2.2199-6.099-7.0243-10.903-13.123-13.123-4.2307-1.7663-10.577-1.7663-21.154-1.7663h-191.32c-10.577 0-16.923 0-21.154 1.7663-6.099 2.2198-10.903 7.0242-13.123 13.123-1.7663 4.2307-1.7663 10.577-1.7663 21.154v85.102c0 10.577 0 16.923 1.7663 21.154 2.2198 6.099 7.0242 10.903 13.123 13.123 4.2307 1.7663 10.577 1.7663 21.154 1.7663z" fill="#929292"/><g transform="translate(667.77 925.13)"><text transform="scale(1,-1)" fill="#ffffff" font-family="HelveticaNeue" font-size="24px"><tspan x="0 11.112 24.888 31.559999" y="0">To: </tspan></text>
</g><g transform="translate(667.77 925.13)"><text transform="matrix(1,0,0,-1,38.232,0)" fill="#ffffff" font-family="HelveticaNeue" font-size="24px"><tspan x="0 7.5599999 20.448 25.775999 38.664001 50.664001 69.863998 82.751999 90.311996 97.872002 110.76 123.648 136.104 148.992 154.776 161.448 174.336 188.112" y="0">relay@attacker.com</tspan></text>
</g><g transform="translate(667.77 925.13)"><text transform="matrix(1 0 0 -1 246.82 0)" fill="#ffffff" font-family="HelveticaNeue" font-size="24px"><tspan x="0" y="0"/></text>
</g><g transform="translate(665.75 896.13)"><text transform="scale(1,-1)" fill="#ffffff" font-family="HelveticaNeue" font-size="24px"><tspan x="0 13.776 21.336 35.112 55.584 62.256001" y="0">From: </tspan></text>
</g><g transform="translate(665.75 896.13)"><text transform="matrix(1,0,0,-1,68.928,0)" fill="#ffffff" font-family="HelveticaNeue" font-size="24px"><tspan x="0 7.1040001 19.992001 32.448002 45.335999 64.536003 76.536003 81.863998 94.751999 102.312 107.64 128.112 134.784 147.672 161.448" y="0">fake@victim.com</tspan></text>
</g><g transform="translate(665.75 896.13)"><text transform="matrix(1 0 0 -1 250.85 0)" fill="#ffffff" font-family="HelveticaNeue" font-size="24px"><tspan x="0" y="0"/></text>
</g><g transform="translate(738.28 867.13)"><text transform="scale(1,-1)" fill="#ffffff" font-family="HelveticaNeue" font-size="24px"><tspan x="0 15.552 31.104 44.880001 51.551998" y="0">SPF: </tspan></text>
</g><g transform="translate(738.28 867.13)"><text transform="matrix(1,0,0,-1,58.224,0)" fill="#ee220c" font-family="HelveticaNeue" font-size="24px"><tspan x="0 12.456 28.007999 34.223999" y="0">FAIL</tspan></text>
</g><g transform="translate(738.28 867.13)"><text transform="matrix(1 0 0 -1 105.79 0)" fill="#ffffff" font-family="HelveticaNeue" font-size="24px"><tspan x="0" y="0"/></text>
</g><g transform="translate(717.16 838.13)"><text transform="scale(1,-1)" fill="#ffffff" font-family="HelveticaNeue" font-size="24px"><tspan x="0 16.896 37.799999 53.352001 69.792 87.120003 93.792" y="0">DMARC: </tspan></text>
</g><g transform="translate(717.16 838.13)"><text transform="matrix(1 0 0 -1 100.46 0)" fill="#ee220c" font-family="HelveticaNeue" font-size="24px"><tspan x="0 12.456 28.007999 34.223999" y="0">FAIL</tspan></text>
</g><g transform="matrix(1 0 0 -1 659.48 952.35)"><path d="m46.528 29.616h208.58" fill="none" stroke="#fff" stroke-miterlimit="10" stroke-width="1.2"/></g><g transform="matrix(1 0 0 -1 659.48 952.35)"><path d="m75.208 58.616h181.92" fill="none" stroke="#fff" stroke-miterlimit="10" stroke-width="1.2"/></g><g transform="matrix(1 0 0 -1 798.75 616.86)"><path d="m0 0c126.65 264.31 332.08 404.43 616.3 420.35l2.4904 0.1129" fill="none" stroke="#000" stroke-width="5"/></g><path d="m1414.6 186.32 20.841 9.2653-19.917 11.114z"/><path d="m931.88 407.5h191.32c10.576 0 16.922 0 21.153-1.7663 6.099-2.2198 10.904-7.0242 13.123-13.123 1.767-4.2307 1.767-10.577 1.767-21.154v-85.102c0-10.577 0-16.923-1.767-21.154-2.219-6.099-7.024-10.903-13.123-13.123-4.231-1.7663-10.577-1.7663-21.153-1.7663h-191.32c-10.577 0-16.923 0-21.154 1.7663-6.099 2.2198-10.903 7.0242-13.123 13.123-1.7663 4.2307-1.7663 10.577-1.7663 21.154v85.102c0 10.577 0 16.923 1.7663 21.154 2.2198 6.099 7.0242 10.903 13.123 13.123 4.2307 1.7663 10.577 1.7663 21.154 1.7663z" fill="#929292"/><g transform="translate(907.03 363.36)"><text transform="scale(1,-1)" fill="#ffffff" font-family="HelveticaNeue" font-size="24px"><tspan x="0 11.112 24.888 31.559999" y="0">To: </tspan></text>
</g><g transform="translate(907.03 363.36)"><text transform="matrix(1,0,0,-1,38.232,0)" fill="#ffffff" font-family="HelveticaNeue" font-size="24px"><tspan x="0 7.5599999 20.448 33.335999 38.664001 57.863998 70.751999 83.183998 96.071999 116.544 130.776 136.104 148.992 155.664 168.552 182.328" y="0">real@example.com</tspan></text>
</g><g transform="translate(907.03 363.36)"><text transform="matrix(1 0 0 -1 241.03 0)" fill="#ffffff" font-family="HelveticaNeue" font-size="24px"><tspan x="0" y="0"/></text>
</g><g transform="translate(902.12 334.36)"><text transform="scale(1,-1)" fill="#ffffff" font-family="HelveticaNeue" font-size="24px"><tspan x="0 13.776 21.336 35.112 55.584 62.256001" y="0">From: </tspan></text>
</g><g transform="translate(902.12 334.36)"><text transform="matrix(1,0,0,-1,68.928,0)" fill="#ffffff" font-family="HelveticaNeue" font-size="24px"><tspan x="0 7.1040001 19.992001 32.448002 45.335999 64.536003 76.536003 81.863998 94.751999 102.312 107.64 128.112 134.784 147.672 161.448" y="0">fake@victim.com</tspan></text>
</g><g transform="translate(902.12 334.36)"><text transform="matrix(1 0 0 -1 250.85 0)" fill="#ffffff" font-family="HelveticaNeue" font-size="24px"><tspan x="0" y="0"/></text>
</g><g transform="translate(968.22 305.36)"><text transform="scale(1,-1)" fill="#ffffff" font-family="HelveticaNeue" font-size="24px"><tspan x="0 15.552 31.104 44.880001 51.551998" y="0">SPF: </tspan></text>
</g><g transform="translate(968.22 305.36)"><text transform="matrix(1,0,0,-1,58.224,0)" fill="#88fa4e" font-family="HelveticaNeue" font-size="24px"><tspan x="0 13.776 29.327999 44.880001" y="0">PASS</tspan></text>
</g><g transform="translate(968.22 305.36)"><text transform="matrix(1 0 0 -1 118.66 0)" fill="#ffffff" font-family="HelveticaNeue" font-size="24px"><tspan x="0" y="0"/></text>
</g><g transform="translate(947.1 276.36)"><text transform="scale(1,-1)" fill="#ffffff" font-family="HelveticaNeue" font-size="24px"><tspan x="0 16.896 37.799999 53.352001 69.792 87.120003 93.792" y="0">DMARC: </tspan></text>
</g><g transform="translate(947.1 276.36)"><text transform="matrix(1 0 0 -1 100.46 0)" fill="#88fa4e" font-family="HelveticaNeue" font-size="24px"><tspan x="0 13.776 29.327999 44.880001" y="0">PASS</tspan></text>
</g><g transform="matrix(1 0 0 -1 895.84 390.57)"><path d="m49.42 29.616h202.8" fill="none" stroke="#fff" stroke-miterlimit="10" stroke-width="1.2"/></g><g transform="matrix(1 0 0 -1 895.84 390.57)"><path d="m75.208 58.616h181.92" fill="none" stroke="#fff" stroke-miterlimit="10" stroke-width="1.2"/></g><g transform="translate(823.04 193.94)"><text transform="scale(1,-1)" fill="#000000" font-family="HelveticaNeue" font-size="24px"><tspan x="0 13.344 26.688 33.360001 40.032001 58.248001 72.024002 85.800003 99.575996 104.904 117.792 124.464 132.024 144.912 156.912 169.8 183.144 197.37601 209.37601 216.048 223.608 236.952 249.84 256.51199 276.98401 289.87201 301.87201 313.87201 326.76001 340.53601 353.42401 360.09601 367.20001 374.76001 388.53601 409.008" y="0">#3: Google resends the message from </tspan></text>
</g><g transform="translate(836.4 164.94)"><text transform="scale(1,-1)" fill="#000000" font-family="HelveticaNeue" font-size="24px"><tspan x="0 7.5599999 20.903999 33.792 39.119999 47.112 53.784 68.015999 80.903999 93.792 106.248 119.136 132.48 146.71201 153.384 166.272 178.272 184.944 197.832 204.504 212.064 224.952 236.952 250.29601 255.62399 263.18399 269.85599 283.63199 290.73599 297.40799 304.96799 318.31201 331.20001 337.87201 351.216 364.104 382.29599" y="0">their backend as a result of the new </tspan></text>
</g><g transform="translate(822.39 135.94)"><text transform="scale(1,-1)" fill="#000000" font-family="HelveticaNeue" font-size="24px"><tspan x="0 12.888 26.232 38.231998 51.119999 56.448002 70.223999 84.456001 97.344002 104.016 111.576 124.464 137.35201 142.67999 156.912 162.24001 175.12801 188.472 196.032 202.70399 208.032 213.36 225.36 232.92 239.592 246.26401 261.81601 267.14401 280.48801 293.37601 306.26401 312.936 320.496 333.84 346.728 353.39999 366.28799 386.76001 399.64801 404.97601 410.30399" y="0">envelope recipient list. Since the email </tspan></text>
</g><g transform="translate(843.09 106.94)"><text transform="scale(1,-1)" fill="#000000" font-family="HelveticaNeue" font-size="24px"><tspan x="0 5.3280001 17.327999 24 37.344002 51.119999 69.311996 75.984001 89.760002 97.751999 103.08 116.856 122.184 135.528 148.416 155.976 161.304 174.64799 188.424 195.09599 202.2 209.75999 223.536 244.008 250.67999 258.23999 271.58401 284.47198 291.14401 309.35999 323.13599 336.91199 350.68799 356.01599 368.90399" y="0">is now originating from the Google </tspan></text>
</g><g transform="translate(812.83 77.943)"><text transform="scale(1,-1)" fill="#000000" font-family="HelveticaNeue" font-size="24px"><tspan x="0 14.232 27.120001 40.007999 52.464001 65.351997 78.695999 92.928001 99.599998 106.272 120.504 134.28 152.472 165.81599 177.81599 185.37601 192.936 205.82401 218.71201 239.18401 245.856 266.328 279.216 284.54401 289.87201 296.54401 308.54401 321.43201 329.42401 341.42401 354.31201 362.30399 374.30399 380.97601 388.53601 396.52802 409.87201 421.87201 429.43201" y="0">backend, downstream mail servers trust </tspan></text>
</g><g transform="translate(955.52 48.943)"><text transform="scale(1,-1)" fill="#000000" font-family="HelveticaNeue" font-size="24px"><tspan x="0 7.5599999 20.903999 33.792 40.464001 60.936001 73.823997 85.823997 97.823997 110.712 124.488 137.37601" y="0">the message.</tspan></text>
</g><g transform="translate(75.611 771.8)"><text transform="scale(1,-1)" fill="#000000" font-family="HelveticaNeue" font-size="24px"><tspan x="0 13.344 26.688 33.360001 40.032001 57.360001 69.360001 74.688004 88.031998 101.808 108.48 120.48 128.03999 140.92799 154.272 168.504 181.392 188.952 203.18401 209.856 222.744 243.216 256.104 261.43201 266.76001 273.43201 285.43201 299.664 313.44" y="0">#1: Using standard email spoo</tspan></text>
</g><g transform="translate(75.611 771.8)"><text transform="matrix(1 0 0 -1 327.22 0)" fill="#000000" font-family="HelveticaNeue" font-size="24px"><tspan x="0" y="0">f</tspan></text>
</g><g transform="translate(75.611 771.8)"><text transform="matrix(1 0 0 -1 339.65 0)" fill="#000000" font-family="HelveticaNeue" font-size="24px"><tspan x="0 13.344 27.120001" y="0">ng </tspan></text>
</g><g transform="translate(94.055 742.8)"><text transform="scale(1,-1)" fill="#000000" font-family="HelveticaNeue" font-size="24px"><tspan x="0 7.5599999 20.448 33.335999 46.68 60.023998 65.351997 79.584 92.928001 105.816 117.816 124.488 131.16 138.72 152.064 164.952 171.62399 184.51199 192.07201 199.632 212.52 225.408 237.864 250.752 258.74399 265.41599 277.41599 290.30399 303.64801 317.88 329.88" y="0">techniques, the attacker sends </tspan></text>
</g><g transform="translate(63.527 713.8)"><text transform="scale(1,-1)" fill="#000000" font-family="HelveticaNeue" font-size="24px"><tspan x="0 7.5599999 20.903999 33.792 54.264 66.264 79.152 84.480003 96.480003 109.368 121.368 128.03999 140.92799 147.60001 168.07201 180.96001 192.96001 204.96001 217.84801 231.62399 244.51199 251.18401 269.37601 274.70401 282.26401 295.608 302.28 315.168 321.84 328.944 342.72 350.04001 363.81601 376.70401 390.936" y="0">themselves a message with a forged </tspan></text>
</g><g transform="translate(89.262 684.8)"><text transform="scale(1,-1)" fill="#000000" font-family="'Courier 10 Pitch'" font-size="24px"><tspan x="0 14.4024 28.8048 43.207199" y="0">From</tspan></text>
</g><g transform="translate(89.262 684.8)"><text transform="matrix(1 0 0 -1 64.281 0)" fill="#000000" font-family="HelveticaNeue" font-size="24px"><tspan x="0 13.344 26.232 39.119999 53.352001 66.239998 74.232002 80.903999 88.008003 95.568001 109.344 129.81599 136.48801 149.37601 162.72 169.392 175.608 191.16 197.832 205.392 218.73599 231.62399 243.62399 250.29601 262.29599 275.18399" y="0">header from an IP they’ve </tspan></text>
</g><g transform="translate(88.283 653.71)"><text transform="scale(1,-1)" fill="#000000" font-family="HelveticaNeue" font-size="24px"><tspan x="0 20.472 33.360001 41.352001 53.807999 66.695999 80.928001 87.599998 100.488 112.488 119.16 132.048 145.392 152.064 157.392 170.73599 184.968 198.744 212.088 225.43201 239.664 246.336 260.112 273 280.56 293.448 311.64001 324.52802 334.75201" y="0">marked as an inbound gateway.</tspan></text>
</g></g></g></svg>
